solid CATIA STL
  facet normal  9.902328e-01  -0.000000e+00  1.394241e-01
    outer loop
      vertex  3.897238e+02 -7.648737e+02  7.138634e+01
      vertex  3.897238e+02 -9.309767e+02  7.138634e+01
      vertex  3.970107e+02 -7.710281e+02  1.963256e+01
    endloop
  endfacet
  facet normal  9.953970e-01 -1.470579e-02  9.470195e-02
    outer loop
      vertex  3.970107e+02 -7.710281e+02  1.963256e+01
      vertex  3.897238e+02 -9.309767e+02  7.138634e+01
      vertex  4.013702e+02 -9.180477e+02 -4.901936e+01
    endloop
  endfacet
  facet normal  9.988291e-01  7.285368e-03  4.782532e-02
    outer loop
      vertex  3.970107e+02 -7.710281e+02  1.963256e+01
      vertex  4.013702e+02 -9.180477e+02 -4.901936e+01
      vertex  4.018535e+02 -7.753473e+02 -8.085053e+01
    endloop
  endfacet
  facet normal  9.996718e-01 -3.161039e-09 -2.561812e-02
    outer loop
      vertex  3.975464e+02 -8.949474e+02 -1.982316e+02
      vertex  3.975464e+02 -7.712851e+02 -1.982316e+02
      vertex  4.013702e+02 -9.180477e+02 -4.901936e+01
    endloop
  endfacet
  facet normal  9.992447e-01 -1.165272e-02 -3.706860e-02
    outer loop
      vertex  4.013702e+02 -9.180477e+02 -4.901936e+01
      vertex  3.975464e+02 -7.712851e+02 -1.982316e+02
      vertex  4.018535e+02 -7.753473e+02 -8.085053e+01
    endloop
  endfacet
  facet normal -9.576960e-01  0.000000e+00  2.877820e-01
    outer loop
      vertex -3.897237e+02 -6.850000e+02  7.138667e+01
      vertex -3.897237e+02 -9.309733e+02  7.138667e+01
      vertex -3.594781e+02 -6.849997e+02  1.720395e+02
    endloop
  endfacet
  facet normal -9.667476e-01  1.439365e-02  2.553270e-01
    outer loop
      vertex -3.594781e+02 -6.849997e+02  1.720395e+02
      vertex -3.897237e+02 -9.309733e+02  7.138667e+01
      vertex -3.706890e+02 -9.370129e+02  1.437983e+02
    endloop
  endfacet
  facet normal -8.839732e-01 -1.304895e-02  4.673553e-01
    outer loop
      vertex -3.594781e+02 -6.849997e+02  1.720395e+02
      vertex -3.706890e+02 -9.370129e+02  1.437983e+02
      vertex -3.347473e+02 -6.849991e+02  2.188164e+02
    endloop
  endfacet
  facet normal -9.066589e-01  3.732772e-03  4.218480e-01
    outer loop
      vertex -3.347473e+02 -6.849991e+02  2.188164e+02
      vertex -3.706890e+02 -9.370129e+02  1.437983e+02
      vertex -3.392612e+02 -9.418010e+02  2.113872e+02
    endloop
  endfacet
  facet normal -8.072076e-01 -2.887460e-03  5.902606e-01
    outer loop
      vertex -3.347473e+02 -6.849991e+02  2.188164e+02
      vertex -3.392612e+02 -9.418010e+02  2.113872e+02
      vertex -3.034477e+02 -6.849994e+02  2.616199e+02
    endloop
  endfacet
  facet normal -8.150039e-01  3.134142e-04  5.794554e-01
    outer loop
      vertex -3.034477e+02 -6.849994e+02  2.616199e+02
      vertex -3.392612e+02 -9.418010e+02  2.113872e+02
      vertex -3.040627e+02 -9.449023e+02  2.608955e+02
    endloop
  endfacet
  facet normal -7.122303e-01 -2.711481e-04  7.019459e-01
    outer loop
      vertex -3.034477e+02 -6.849994e+02  2.616199e+02
      vertex -3.040627e+02 -9.449023e+02  2.608955e+02
      vertex -2.666009e+02 -6.849999e+02  2.990065e+02
    endloop
  endfacet
  facet normal -7.056482e-01 -2.189598e-03  7.085590e-01
    outer loop
      vertex -2.666009e+02 -6.849999e+02  2.990065e+02
      vertex -3.040627e+02 -9.449023e+02  2.608955e+02
      vertex -2.606878e+02 -9.473741e+02  3.040845e+02
    endloop
  endfacet
  facet normal -6.035259e-01  1.830213e-03  7.973412e-01
    outer loop
      vertex -2.666009e+02 -6.849999e+02  2.990065e+02
      vertex -2.606878e+02 -9.473741e+02  3.040845e+02
      vertex -2.240295e+02 -6.850003e+02  3.312298e+02
    endloop
  endfacet
  facet normal -5.446038e-01 -1.067353e-02  8.386256e-01
    outer loop
      vertex -2.240295e+02 -6.850003e+02  3.312298e+02
      vertex -2.606878e+02 -9.473741e+02  3.040845e+02
      vertex -1.833018e+02 -9.500076e+02  3.543056e+02
    endloop
  endfacet
  facet normal -4.848680e-01  1.638276e-03  8.745858e-01
    outer loop
      vertex -2.240295e+02 -6.850003e+02  3.312298e+02
      vertex -1.833018e+02 -9.500076e+02  3.543056e+02
      vertex -1.767861e+02 -6.850005e+02  3.574214e+02
    endloop
  endfacet
  facet normal -3.609329e-01 -2.090890e-03  9.325894e-01
    outer loop
      vertex -1.767861e+02 -6.850005e+02  3.574214e+02
      vertex -1.833018e+02 -9.500076e+02  3.543056e+02
      vertex -1.261948e+02 -6.850004e+02  3.770014e+02
    endloop
  endfacet
  facet normal -3.319492e-01 -9.249830e-03  9.432519e-01
    outer loop
      vertex -1.261948e+02 -6.850004e+02  3.770014e+02
      vertex -1.833018e+02 -9.500076e+02  3.543056e+02
      vertex -9.459028e+01 -9.515181e+02  3.855101e+02
    endloop
  endfacet
  facet normal -2.258461e-01  4.318754e-03  9.741535e-01
    outer loop
      vertex -1.261948e+02 -6.850004e+02  3.770014e+02
      vertex -9.459028e+01 -9.515181e+02  3.855101e+02
      vertex -6.564069e+01 -6.850001e+02  3.910402e+02
    endloop
  endfacet
  facet normal -8.035269e-02 -1.195268e-02  9.966949e-01
    outer loop
      vertex -6.564069e+01 -6.850001e+02  3.910402e+02
      vertex -9.459028e+01 -9.515181e+02  3.855101e+02
      vertex -3.113836e+00 -6.849999e+02  3.960810e+02
    endloop
  endfacet
  facet normal -1.112011e-01 -1.249718e-03  9.937972e-01
    outer loop
      vertex -3.113836e+00 -6.849999e+02  3.960810e+02
      vertex -9.459028e+01 -9.515181e+02  3.855101e+02
      vertex -1.184303e-02 -9.519905e+02  3.960924e+02
    endloop
  endfacet
  facet normal  1.060469e-01  1.274372e-03  9.943603e-01
    outer loop
      vertex -3.113836e+00 -6.849999e+02  3.960810e+02
      vertex -1.184303e-02 -9.519905e+02  3.960924e+02
      vertex  9.335784e+01 -6.850006e+02  3.857925e+02
    endloop
  endfacet
  facet normal  1.110996e-01 -5.138730e-04  9.938092e-01
    outer loop
      vertex  9.335784e+01 -6.850006e+02  3.857925e+02
      vertex -1.184303e-02 -9.519905e+02  3.960924e+02
      vertex  9.456533e+01 -9.514594e+02  3.855197e+02
    endloop
  endfacet
  facet normal  2.827516e-01  2.994236e-04  9.591931e-01
    outer loop
      vertex  9.335784e+01 -6.850006e+02  3.857925e+02
      vertex  9.456533e+01 -9.514594e+02  3.855197e+02
      vertex  1.458814e+02 -6.850004e+02  3.703095e+02
    endloop
  endfacet
  facet normal  3.318997e-01 -1.007525e-02  9.432608e-01
    outer loop
      vertex  1.458814e+02 -6.850004e+02  3.703095e+02
      vertex  9.456533e+01 -9.514594e+02  3.855197e+02
      vertex  1.832744e+02 -9.499100e+02  3.543227e+02
    endloop
  endfacet
  facet normal  4.091104e-01  2.680832e-03  9.124810e-01
    outer loop
      vertex  1.458814e+02 -6.850004e+02  3.703095e+02
      vertex  1.832744e+02 -9.499100e+02  3.543227e+02
      vertex  1.955928e+02 -6.850002e+02  3.480215e+02
    endloop
  endfacet
  facet normal  5.318566e-01 -4.588688e-03  8.468221e-01
    outer loop
      vertex  1.955928e+02 -6.850002e+02  3.480215e+02
      vertex  1.832744e+02 -9.499100e+02  3.543227e+02
      vertex  2.411959e+02 -6.850005e+02  3.193799e+02
    endloop
  endfacet
  facet normal  5.445393e-01 -8.433967e-03  8.386930e-01
    outer loop
      vertex  2.411959e+02 -6.850005e+02  3.193799e+02
      vertex  1.832744e+02 -9.499100e+02  3.543227e+02
      vertex  2.606605e+02 -9.472739e+02  3.041047e+02
    endloop
  endfacet
  facet normal  6.472118e-01  3.635018e-03  7.623017e-01
    outer loop
      vertex  2.411959e+02 -6.850005e+02  3.193799e+02
      vertex  2.606605e+02 -9.472739e+02  3.041047e+02
      vertex  2.815905e+02 -6.850010e+02  2.850840e+02
    endloop
  endfacet
  facet normal  7.058738e-01 -4.961219e-03  7.083202e-01
    outer loop
      vertex  2.815905e+02 -6.850010e+02  2.850840e+02
      vertex  2.606605e+02 -9.472739e+02  3.041047e+02
      vertex  3.041499e+02 -9.448165e+02  2.607827e+02
    endloop
  endfacet
  facet normal  7.575211e-01  4.716806e-03  6.527937e-01
    outer loop
      vertex  2.815905e+02 -6.850010e+02  2.850840e+02
      vertex  3.041499e+02 -9.448165e+02  2.607827e+02
      vertex  3.195984e+02 -7.124409e+02  2.411768e+02
    endloop
  endfacet
  facet normal  8.495925e-01 -1.199199e-02  5.273033e-01
    outer loop
      vertex  3.195984e+02 -7.124409e+02  2.411768e+02
      vertex  3.041499e+02 -9.448165e+02  2.607827e+02
      vertex  3.506261e+02 -7.349841e+02  1.906721e+02
    endloop
  endfacet
  facet normal  8.149459e-01  1.308524e-02  5.793893e-01
    outer loop
      vertex  3.506261e+02 -7.349841e+02  1.906721e+02
      vertex  3.041499e+02 -9.448165e+02  2.607827e+02
      vertex  3.394184e+02 -9.417411e+02  2.111059e+02
    endloop
  endfacet
  facet normal  9.227749e-01 -1.195616e-02  3.851539e-01
    outer loop
      vertex  3.506261e+02 -7.349841e+02  1.906721e+02
      vertex  3.394184e+02 -9.417411e+02  2.111059e+02
      vertex  3.738937e+02 -7.523619e+02  1.343867e+02
    endloop
  endfacet
  facet normal  9.068458e-01  5.637391e-03  4.214250e-01
    outer loop
      vertex  3.738937e+02 -7.523619e+02  1.343867e+02
      vertex  3.394184e+02 -9.417411e+02  2.111059e+02
      vertex  3.707407e+02 -9.370071e+02  1.436415e+02
    endloop
  endfacet
  facet normal  9.696410e-01 -4.302945e-03  2.444952e-01
    outer loop
      vertex  3.738937e+02 -7.523619e+02  1.343867e+02
      vertex  3.707407e+02 -9.370071e+02  1.436415e+02
      vertex  3.897237e+02 -7.648737e+02  7.138643e+01
    endloop
  endfacet
  facet normal  9.671782e-01  0.000000e+00  2.540991e-01
    outer loop
      vertex  3.897237e+02 -7.648737e+02  7.138643e+01
      vertex  3.707407e+02 -9.370071e+02  1.436415e+02
      vertex  3.897237e+02 -9.309767e+02  7.138643e+01
    endloop
  endfacet
  facet normal -9.997056e-01  0.000000e+00 -2.426351e-02
    outer loop
      vertex -3.977889e+02 -6.850000e+02 -1.982185e+02
      vertex -3.977889e+02 -8.952097e+02 -1.982185e+02
      vertex -4.014145e+02 -6.850029e+02 -4.883732e+01
    endloop
  endfacet
  facet normal -9.992152e-01  1.000358e-02 -3.832849e-02
    outer loop
      vertex -4.014145e+02 -6.850029e+02 -4.883732e+01
      vertex -3.977889e+02 -8.952097e+02 -1.982185e+02
      vertex -4.019007e+02 -9.121898e+02 -9.545849e+01
    endloop
  endfacet
  facet normal -9.995661e-01 -3.853515e-03  2.920137e-02
    outer loop
      vertex -4.014145e+02 -6.850029e+02 -4.883732e+01
      vertex -4.019007e+02 -9.121898e+02 -9.545849e+01
      vertex -3.992334e+02 -9.232650e+02 -5.618134e+00
    endloop
  endfacet
  facet normal -9.922079e-01  1.338642e-02  1.238717e-01
    outer loop
      vertex -3.992334e+02 -9.232650e+02 -5.618134e+00
      vertex -3.897238e+02 -9.309733e+02  7.138657e+01
      vertex -4.014145e+02 -6.850029e+02 -4.883732e+01
    endloop
  endfacet
  facet normal -9.953054e-01  0.000000e+00  9.678510e-02
    outer loop
      vertex -4.014145e+02 -6.850029e+02 -4.883732e+01
      vertex -3.897238e+02 -9.309733e+02  7.138657e+01
      vertex -3.897238e+02 -6.850000e+02  7.138657e+01
    endloop
  endfacet
  facet normal  0.000000e+00 -1.000000e+00  0.000000e+00
    outer loop
      vertex  4.499989e+01 -5.850000e+02 -2.799978e+01
      vertex  4.500000e+01 -5.850000e+02 -1.982185e+02
      vertex  8.848493e+01 -5.850000e+02  2.839110e+02
    endloop
  endfacet
  facet normal  0.000000e+00 -1.000000e+00  0.000000e+00
    outer loop
      vertex  3.258907e-02 -5.850000e+02  2.960899e+02
      vertex -5.800076e+01 -5.850000e+02  2.909351e+02
      vertex -4.000022e+01 -5.850000e+02 -2.300011e+01
    endloop
  endfacet
  facet normal  0.000000e+00 -1.000000e+00  0.000000e+00
    outer loop
      vertex  3.258907e-02 -5.850000e+02  2.960899e+02
      vertex -4.000022e+01 -5.850000e+02 -2.300011e+01
      vertex  4.000022e+01 -5.850000e+02 -2.300011e+01
    endloop
  endfacet
  facet normal  0.000000e+00 -1.000000e+00  0.000000e+00
    outer loop
      vertex  3.258907e-02 -5.850000e+02  2.960899e+02
      vertex  4.000022e+01 -5.850000e+02 -2.300011e+01
      vertex  4.191294e+01 -5.850000e+02 -2.338203e+01
    endloop
  endfacet
  facet normal  0.000000e+00 -1.000000e+00  0.000000e+00
    outer loop
      vertex  3.258907e-02 -5.850000e+02  2.960899e+02
      vertex  4.191294e+01 -5.850000e+02 -2.338203e+01
      vertex  4.353535e+01 -5.850000e+02 -2.446467e+01
    endloop
  endfacet
  facet normal  0.000000e+00 -1.000000e+00  0.000000e+00
    outer loop
      vertex  3.258907e-02 -5.850000e+02  2.960899e+02
      vertex  4.353535e+01 -5.850000e+02 -2.446467e+01
      vertex  4.461797e+01 -5.850000e+02 -2.608707e+01
    endloop
  endfacet
  facet normal  0.000000e+00 -1.000000e+00  0.000000e+00
    outer loop
      vertex  3.258907e-02 -5.850000e+02  2.960899e+02
      vertex  4.461797e+01 -5.850000e+02 -2.608707e+01
      vertex  4.499989e+01 -5.850000e+02 -2.799978e+01
    endloop
  endfacet
  facet normal  0.000000e+00 -1.000000e+00  0.000000e+00
    outer loop
      vertex  3.258907e-02 -5.850000e+02  2.960899e+02
      vertex  4.499989e+01 -5.850000e+02 -2.799978e+01
      vertex  8.848493e+01 -5.850000e+02  2.839110e+02
    endloop
  endfacet
  facet normal  0.000000e+00 -1.000000e+00  0.000000e+00
    outer loop
      vertex -5.800076e+01 -5.850000e+02  2.909351e+02
      vertex -2.975518e+02 -5.850000e+02 -1.982185e+02
      vertex -4.500000e+01 -5.850000e+02 -1.982185e+02
    endloop
  endfacet
  facet normal  0.000000e+00 -1.000000e+00  0.000000e+00
    outer loop
      vertex -5.800076e+01 -5.850000e+02  2.909351e+02
      vertex -4.500000e+01 -5.850000e+02 -1.982185e+02
      vertex -4.499989e+01 -5.850000e+02 -2.799978e+01
    endloop
  endfacet
  facet normal  0.000000e+00 -1.000000e+00  0.000000e+00
    outer loop
      vertex -5.800076e+01 -5.850000e+02  2.909351e+02
      vertex -4.499989e+01 -5.850000e+02 -2.799978e+01
      vertex -4.461797e+01 -5.850000e+02 -2.608707e+01
    endloop
  endfacet
  facet normal  0.000000e+00 -1.000000e+00  0.000000e+00
    outer loop
      vertex -5.800076e+01 -5.850000e+02  2.909351e+02
      vertex -4.461797e+01 -5.850000e+02 -2.608707e+01
      vertex -4.353534e+01 -5.850000e+02 -2.446468e+01
    endloop
  endfacet
  facet normal  0.000000e+00 -1.000000e+00  0.000000e+00
    outer loop
      vertex -5.800076e+01 -5.850000e+02  2.909351e+02
      vertex -4.353534e+01 -5.850000e+02 -2.446468e+01
      vertex -4.191294e+01 -5.850000e+02 -2.338204e+01
    endloop
  endfacet
  facet normal  0.000000e+00 -1.000000e+00  0.000000e+00
    outer loop
      vertex -5.800076e+01 -5.850000e+02  2.909351e+02
      vertex -4.191294e+01 -5.850000e+02 -2.338204e+01
      vertex -4.000022e+01 -5.850000e+02 -2.300011e+01
    endloop
  endfacet
  facet normal  0.000000e+00 -1.000000e+00  0.000000e+00
    outer loop
      vertex -2.975518e+02 -5.850000e+02 -1.982185e+02
      vertex -5.800076e+01 -5.850000e+02  2.909351e+02
      vertex -1.264079e+02 -5.850000e+02  2.704371e+02
    endloop
  endfacet
  facet normal  0.000000e+00 -1.000000e+00  0.000000e+00
    outer loop
      vertex -2.975518e+02 -5.850000e+02 -1.982185e+02
      vertex -1.264079e+02 -5.850000e+02  2.704371e+02
      vertex -1.862582e+02 -5.850000e+02  2.356089e+02
    endloop
  endfacet
  facet normal  0.000000e+00 -1.000000e+00  0.000000e+00
    outer loop
      vertex -2.975518e+02 -5.850000e+02 -1.982185e+02
      vertex -1.862582e+02 -5.850000e+02  2.356089e+02
      vertex -2.343709e+02 -5.850000e+02  1.881148e+02
    endloop
  endfacet
  facet normal  0.000000e+00 -1.000000e+00  0.000000e+00
    outer loop
      vertex -2.975518e+02 -5.850000e+02 -1.982185e+02
      vertex -2.343709e+02 -5.850000e+02  1.881148e+02
      vertex -2.689810e+02 -5.850000e+02  1.294000e+02
    endloop
  endfacet
  facet normal  0.000000e+00 -1.000000e+00  0.000000e+00
    outer loop
      vertex -2.975518e+02 -5.850000e+02 -1.982185e+02
      vertex -2.689810e+02 -5.850000e+02  1.294000e+02
      vertex -2.940442e+02 -5.850000e+02  3.725349e+01
    endloop
  endfacet
  facet normal  0.000000e+00 -1.000000e+00  0.000000e+00
    outer loop
      vertex -2.975518e+02 -5.850000e+02 -1.982185e+02
      vertex -2.940442e+02 -5.850000e+02  3.725349e+01
      vertex -2.980230e+02 -5.850000e+02  4.599985e+00
    endloop
  endfacet
  facet normal  0.000000e+00 -1.000000e+00  -0.000000e+00
    outer loop
      vertex -2.975518e+02 -5.850000e+02 -1.982185e+02
      vertex -2.980230e+02 -5.850000e+02  4.599985e+00
      vertex -3.005906e+02 -5.850000e+02 -1.455881e+02
    endloop
  endfacet
  facet normal  0.000000e+00 -1.000000e+00  -0.000000e+00
    outer loop
      vertex  2.115074e+02 -5.850000e+02 -1.982185e+02
      vertex  2.115074e+02 -5.850000e+02  2.137511e+02
      vertex  4.500000e+01 -5.850000e+02 -1.982185e+02
    endloop
  endfacet
  facet normal  0.000000e+00 -1.000000e+00  0.000000e+00
    outer loop
      vertex  4.500000e+01 -5.850000e+02 -1.982185e+02
      vertex  2.115074e+02 -5.850000e+02  2.137511e+02
      vertex  1.553920e+02 -5.850000e+02  2.559946e+02
    endloop
  endfacet
  facet normal  -0.000000e+00 -1.000000e+00  0.000000e+00
    outer loop
      vertex  4.500000e+01 -5.850000e+02 -1.982185e+02
      vertex  1.553920e+02 -5.850000e+02  2.559946e+02
      vertex  8.848493e+01 -5.850000e+02  2.839110e+02
    endloop
  endfacet
  facet normal -7.071099e-01 -7.071037e-01  7.020653e-09
    outer loop
      vertex  3.682461e+02 -7.003173e+02  9.400028e+00
      vertex  3.680089e+02 -7.000801e+02 -1.982185e+02
      vertex  3.717170e+02 -7.037883e+02 -4.016481e+01
    endloop
  endfacet
  facet normal -7.071072e-01 -7.071064e-01  0.000000e+00
    outer loop
      vertex  2.822181e+02 -6.142893e+02  2.137512e+02
      vertex  2.822181e+02 -6.142893e+02 -1.982185e+02
      vertex  3.330987e+02 -6.651699e+02  1.435567e+02
    endloop
  endfacet
  facet normal -7.071069e-01 -7.071066e-01 -9.125899e-08
    outer loop
      vertex  3.330987e+02 -6.651699e+02  1.435567e+02
      vertex  2.822181e+02 -6.142893e+02 -1.982185e+02
      vertex  3.680089e+02 -7.000801e+02 -1.982185e+02
    endloop
  endfacet
  facet normal -7.071064e-01 -7.071072e-01  1.916194e-08
    outer loop
      vertex  3.330987e+02 -6.651699e+02  1.435567e+02
      vertex  3.680089e+02 -7.000801e+02 -1.982185e+02
      vertex  3.620932e+02 -6.941644e+02  5.324781e+01
    endloop
  endfacet
  facet normal -7.071068e-01 -7.071068e-01  0.000000e+00
    outer loop
      vertex  3.620932e+02 -6.941644e+02  5.324781e+01
      vertex  3.680089e+02 -7.000801e+02 -1.982185e+02
      vertex  3.682461e+02 -7.003173e+02  9.400028e+00
    endloop
  endfacet
  facet normal  9.988291e-01 -7.285368e-03  4.782532e-02
    outer loop
      vertex  4.018535e+02  7.753473e+02 -8.085053e+01
      vertex  4.013702e+02  9.180477e+02 -4.901936e+01
      vertex  3.970107e+02  7.710281e+02  1.963256e+01
    endloop
  endfacet
  facet normal  9.953970e-01  1.470579e-02  9.470195e-02
    outer loop
      vertex  3.970107e+02  7.710281e+02  1.963256e+01
      vertex  4.013702e+02  9.180477e+02 -4.901936e+01
      vertex  3.897238e+02  9.309767e+02  7.138634e+01
    endloop
  endfacet
  facet normal  9.902328e-01  0.000000e+00  1.394241e-01
    outer loop
      vertex  3.970107e+02  7.710281e+02  1.963256e+01
      vertex  3.897238e+02  9.309767e+02  7.138634e+01
      vertex  3.897238e+02  7.648737e+02  7.138634e+01
    endloop
  endfacet
  facet normal  9.996718e-01  3.306706e-09 -2.561812e-02
    outer loop
      vertex  3.975464e+02  8.949474e+02 -1.982316e+02
      vertex  4.013702e+02  9.180477e+02 -4.901936e+01
      vertex  3.975464e+02  7.712851e+02 -1.982316e+02
    endloop
  endfacet
  facet normal  9.992447e-01  1.165272e-02 -3.706860e-02
    outer loop
      vertex  3.975464e+02  7.712851e+02 -1.982316e+02
      vertex  4.013702e+02  9.180477e+02 -4.901936e+01
      vertex  4.018535e+02  7.753473e+02 -8.085053e+01
    endloop
  endfacet
  facet normal -4.848680e-01 -1.638276e-03  8.745858e-01
    outer loop
      vertex -1.767861e+02  6.850005e+02  3.574214e+02
      vertex -1.833018e+02  9.500076e+02  3.543056e+02
      vertex -2.240295e+02  6.850003e+02  3.312298e+02
    endloop
  endfacet
  facet normal -5.446038e-01  1.067353e-02  8.386256e-01
    outer loop
      vertex -2.240295e+02  6.850003e+02  3.312298e+02
      vertex -1.833018e+02  9.500076e+02  3.543056e+02
      vertex -2.606878e+02  9.473741e+02  3.040845e+02
    endloop
  endfacet
  facet normal -6.035259e-01 -1.830213e-03  7.973412e-01
    outer loop
      vertex -2.240295e+02  6.850003e+02  3.312298e+02
      vertex -2.606878e+02  9.473741e+02  3.040845e+02
      vertex -2.666009e+02  6.849999e+02  2.990065e+02
    endloop
  endfacet
  facet normal -7.056482e-01  2.189598e-03  7.085590e-01
    outer loop
      vertex -2.666009e+02  6.849999e+02  2.990065e+02
      vertex -2.606878e+02  9.473741e+02  3.040845e+02
      vertex -3.040627e+02  9.449023e+02  2.608955e+02
    endloop
  endfacet
  facet normal -7.122303e-01  2.711481e-04  7.019459e-01
    outer loop
      vertex -2.666009e+02  6.849999e+02  2.990065e+02
      vertex -3.040627e+02  9.449023e+02  2.608955e+02
      vertex -3.034477e+02  6.849994e+02  2.616199e+02
    endloop
  endfacet
  facet normal -8.150039e-01 -3.134142e-04  5.794554e-01
    outer loop
      vertex -3.034477e+02  6.849994e+02  2.616199e+02
      vertex -3.040627e+02  9.449023e+02  2.608955e+02
      vertex -3.392612e+02  9.418010e+02  2.113872e+02
    endloop
  endfacet
  facet normal -8.072076e-01  2.887460e-03  5.902606e-01
    outer loop
      vertex -3.034477e+02  6.849994e+02  2.616199e+02
      vertex -3.392612e+02  9.418010e+02  2.113872e+02
      vertex -3.347473e+02  6.849991e+02  2.188164e+02
    endloop
  endfacet
  facet normal -9.066589e-01 -3.732772e-03  4.218480e-01
    outer loop
      vertex -3.347473e+02  6.849991e+02  2.188164e+02
      vertex -3.392612e+02  9.418010e+02  2.113872e+02
      vertex -3.706890e+02  9.370129e+02  1.437983e+02
    endloop
  endfacet
  facet normal -8.839732e-01  1.304895e-02  4.673553e-01
    outer loop
      vertex -3.347473e+02  6.849991e+02  2.188164e+02
      vertex -3.706890e+02  9.370129e+02  1.437983e+02
      vertex -3.594781e+02  6.849997e+02  1.720395e+02
    endloop
  endfacet
  facet normal -9.667476e-01 -1.439365e-02  2.553270e-01
    outer loop
      vertex -3.594781e+02  6.849997e+02  1.720395e+02
      vertex -3.706890e+02  9.370129e+02  1.437983e+02
      vertex -3.897237e+02  9.309733e+02  7.138667e+01
    endloop
  endfacet
  facet normal -9.576960e-01  0.000000e+00  2.877820e-01
    outer loop
      vertex -3.594781e+02  6.849997e+02  1.720395e+02
      vertex -3.897237e+02  9.309733e+02  7.138667e+01
      vertex -3.897237e+02  6.850000e+02  7.138667e+01
    endloop
  endfacet
  facet normal -2.258461e-01 -4.318754e-03  9.741535e-01
    outer loop
      vertex -6.564069e+01  6.850001e+02  3.910402e+02
      vertex -9.459028e+01  9.515181e+02  3.855101e+02
      vertex -1.261948e+02  6.850004e+02  3.770014e+02
    endloop
  endfacet
  facet normal -3.319492e-01  9.249830e-03  9.432519e-01
    outer loop
      vertex -1.261948e+02  6.850004e+02  3.770014e+02
      vertex -9.459028e+01  9.515181e+02  3.855101e+02
      vertex -1.833018e+02  9.500076e+02  3.543056e+02
    endloop
  endfacet
  facet normal -3.609329e-01  2.090890e-03  9.325894e-01
    outer loop
      vertex -1.261948e+02  6.850004e+02  3.770014e+02
      vertex -1.833018e+02  9.500076e+02  3.543056e+02
      vertex -1.767861e+02  6.850005e+02  3.574214e+02
    endloop
  endfacet
  facet normal  4.091104e-01 -2.680832e-03  9.124810e-01
    outer loop
      vertex  1.955928e+02  6.850002e+02  3.480215e+02
      vertex  1.832744e+02  9.499100e+02  3.543227e+02
      vertex  1.458814e+02  6.850004e+02  3.703095e+02
    endloop
  endfacet
  facet normal  3.318997e-01  1.007525e-02  9.432608e-01
    outer loop
      vertex  1.458814e+02  6.850004e+02  3.703095e+02
      vertex  1.832744e+02  9.499100e+02  3.543227e+02
      vertex  9.456533e+01  9.514594e+02  3.855197e+02
    endloop
  endfacet
  facet normal  2.827516e-01 -2.994236e-04  9.591931e-01
    outer loop
      vertex  1.458814e+02  6.850004e+02  3.703095e+02
      vertex  9.456533e+01  9.514594e+02  3.855197e+02
      vertex  9.335784e+01  6.850006e+02  3.857925e+02
    endloop
  endfacet
  facet normal  1.110996e-01  5.138730e-04  9.938092e-01
    outer loop
      vertex  9.335784e+01  6.850006e+02  3.857925e+02
      vertex  9.456533e+01  9.514594e+02  3.855197e+02
      vertex -1.184303e-02  9.519905e+02  3.960924e+02
    endloop
  endfacet
  facet normal  1.060469e-01 -1.274372e-03  9.943603e-01
    outer loop
      vertex  9.335784e+01  6.850006e+02  3.857925e+02
      vertex -1.184303e-02  9.519905e+02  3.960924e+02
      vertex -3.113836e+00  6.849999e+02  3.960810e+02
    endloop
  endfacet
  facet normal -1.112011e-01  1.249718e-03  9.937972e-01
    outer loop
      vertex -3.113836e+00  6.849999e+02  3.960810e+02
      vertex -1.184303e-02  9.519905e+02  3.960924e+02
      vertex -9.459028e+01  9.515181e+02  3.855101e+02
    endloop
  endfacet
  facet normal -8.035269e-02  1.195268e-02  9.966949e-01
    outer loop
      vertex -3.113836e+00  6.849999e+02  3.960810e+02
      vertex -9.459028e+01  9.515181e+02  3.855101e+02
      vertex -6.564069e+01  6.850001e+02  3.910402e+02
    endloop
  endfacet
  facet normal  7.575211e-01 -4.716806e-03  6.527937e-01
    outer loop
      vertex  3.195984e+02  7.124409e+02  2.411768e+02
      vertex  3.041499e+02  9.448165e+02  2.607827e+02
      vertex  2.815905e+02  6.850010e+02  2.850840e+02
    endloop
  endfacet
  facet normal  7.058738e-01  4.961219e-03  7.083202e-01
    outer loop
      vertex  2.815905e+02  6.850010e+02  2.850840e+02
      vertex  3.041499e+02  9.448165e+02  2.607827e+02
      vertex  2.606605e+02  9.472739e+02  3.041047e+02
    endloop
  endfacet
  facet normal  6.472118e-01 -3.635018e-03  7.623017e-01
    outer loop
      vertex  2.815905e+02  6.850010e+02  2.850840e+02
      vertex  2.606605e+02  9.472739e+02  3.041047e+02
      vertex  2.411959e+02  6.850005e+02  3.193799e+02
    endloop
  endfacet
  facet normal  5.445393e-01  8.433967e-03  8.386930e-01
    outer loop
      vertex  2.411959e+02  6.850005e+02  3.193799e+02
      vertex  2.606605e+02  9.472739e+02  3.041047e+02
      vertex  1.832744e+02  9.499100e+02  3.543227e+02
    endloop
  endfacet
  facet normal  5.318566e-01  4.588688e-03  8.468221e-01
    outer loop
      vertex  2.411959e+02  6.850005e+02  3.193799e+02
      vertex  1.832744e+02  9.499100e+02  3.543227e+02
      vertex  1.955928e+02  6.850002e+02  3.480215e+02
    endloop
  endfacet
  facet normal  8.495925e-01  1.199199e-02  5.273033e-01
    outer loop
      vertex  3.506261e+02  7.349841e+02  1.906721e+02
      vertex  3.041499e+02  9.448165e+02  2.607827e+02
      vertex  3.195984e+02  7.124409e+02  2.411768e+02
    endloop
  endfacet
  facet normal  8.149459e-01 -1.308524e-02  5.793893e-01
    outer loop
      vertex  3.041499e+02  9.448165e+02  2.607827e+02
      vertex  3.506261e+02  7.349841e+02  1.906721e+02
      vertex  3.394184e+02  9.417411e+02  2.111059e+02
    endloop
  endfacet
  facet normal  9.227749e-01  1.195616e-02  3.851539e-01
    outer loop
      vertex  3.394184e+02  9.417411e+02  2.111059e+02
      vertex  3.506261e+02  7.349841e+02  1.906721e+02
      vertex  3.738937e+02  7.523619e+02  1.343867e+02
    endloop
  endfacet
  facet normal  9.068458e-01 -5.637391e-03  4.214250e-01
    outer loop
      vertex  3.394184e+02  9.417411e+02  2.111059e+02
      vertex  3.738937e+02  7.523619e+02  1.343867e+02
      vertex  3.707407e+02  9.370071e+02  1.436415e+02
    endloop
  endfacet
  facet normal  9.696410e-01  4.302945e-03  2.444952e-01
    outer loop
      vertex  3.707407e+02  9.370071e+02  1.436415e+02
      vertex  3.738937e+02  7.523619e+02  1.343867e+02
      vertex  3.897237e+02  7.648737e+02  7.138643e+01
    endloop
  endfacet
  facet normal  9.671782e-01  -0.000000e+00  2.540991e-01
    outer loop
      vertex  3.707407e+02  9.370071e+02  1.436415e+02
      vertex  3.897237e+02  7.648737e+02  7.138643e+01
      vertex  3.897237e+02  9.309767e+02  7.138643e+01
    endloop
  endfacet
  facet normal -9.995661e-01  3.853515e-03  2.920137e-02
    outer loop
      vertex -3.992334e+02  9.232650e+02 -5.618134e+00
      vertex -4.019007e+02  9.121898e+02 -9.545849e+01
      vertex -4.014145e+02  6.850029e+02 -4.883732e+01
    endloop
  endfacet
  facet normal -9.992152e-01 -1.000358e-02 -3.832849e-02
    outer loop
      vertex -4.014145e+02  6.850029e+02 -4.883732e+01
      vertex -4.019007e+02  9.121898e+02 -9.545849e+01
      vertex -3.977889e+02  8.952097e+02 -1.982185e+02
    endloop
  endfacet
  facet normal -9.997056e-01  -0.000000e+00 -2.426351e-02
    outer loop
      vertex -4.014145e+02  6.850029e+02 -4.883732e+01
      vertex -3.977889e+02  8.952097e+02 -1.982185e+02
      vertex -3.977889e+02  6.850000e+02 -1.982185e+02
    endloop
  endfacet
  facet normal -9.922079e-01 -1.338642e-02  1.238717e-01
    outer loop
      vertex -3.992334e+02  9.232650e+02 -5.618134e+00
      vertex -4.014145e+02  6.850029e+02 -4.883732e+01
      vertex -3.897238e+02  9.309733e+02  7.138657e+01
    endloop
  endfacet
  facet normal -9.953054e-01  0.000000e+00  9.678510e-02
    outer loop
      vertex -3.897238e+02  9.309733e+02  7.138657e+01
      vertex -4.014145e+02  6.850029e+02 -4.883732e+01
      vertex -3.897238e+02  6.850000e+02  7.138657e+01
    endloop
  endfacet
  facet normal  0.000000e+00  1.000000e+00  -0.000000e+00
    outer loop
      vertex  8.848493e+01  5.850000e+02  2.839110e+02
      vertex  4.500000e+01  5.850000e+02 -1.982185e+02
      vertex  4.499989e+01  5.850000e+02 -2.799978e+01
    endloop
  endfacet
  facet normal  0.000000e+00  1.000000e+00  0.000000e+00
    outer loop
      vertex  3.258907e-02  5.850000e+02  2.960899e+02
      vertex  8.848493e+01  5.850000e+02  2.839110e+02
      vertex  4.499989e+01  5.850000e+02 -2.799978e+01
    endloop
  endfacet
  facet normal  0.000000e+00  1.000000e+00  0.000000e+00
    outer loop
      vertex  3.258907e-02  5.850000e+02  2.960899e+02
      vertex  4.499989e+01  5.850000e+02 -2.799978e+01
      vertex  4.461797e+01  5.850000e+02 -2.608707e+01
    endloop
  endfacet
  facet normal  0.000000e+00  1.000000e+00  0.000000e+00
    outer loop
      vertex  3.258907e-02  5.850000e+02  2.960899e+02
      vertex  4.461797e+01  5.850000e+02 -2.608707e+01
      vertex  4.353535e+01  5.850000e+02 -2.446467e+01
    endloop
  endfacet
  facet normal  0.000000e+00  1.000000e+00  0.000000e+00
    outer loop
      vertex  3.258907e-02  5.850000e+02  2.960899e+02
      vertex  4.353535e+01  5.850000e+02 -2.446467e+01
      vertex  4.191294e+01  5.850000e+02 -2.338203e+01
    endloop
  endfacet
  facet normal  0.000000e+00  1.000000e+00  0.000000e+00
    outer loop
      vertex  3.258907e-02  5.850000e+02  2.960899e+02
      vertex  4.191294e+01  5.850000e+02 -2.338203e+01
      vertex  4.000022e+01  5.850000e+02 -2.300011e+01
    endloop
  endfacet
  facet normal  0.000000e+00  1.000000e+00  0.000000e+00
    outer loop
      vertex  3.258907e-02  5.850000e+02  2.960899e+02
      vertex  4.000022e+01  5.850000e+02 -2.300011e+01
      vertex -4.000022e+01  5.850000e+02 -2.300011e+01
    endloop
  endfacet
  facet normal  0.000000e+00  1.000000e+00  -0.000000e+00
    outer loop
      vertex  3.258907e-02  5.850000e+02  2.960899e+02
      vertex -4.000022e+01  5.850000e+02 -2.300011e+01
      vertex -5.800076e+01  5.850000e+02  2.909351e+02
    endloop
  endfacet
  facet normal  0.000000e+00  1.000000e+00  0.000000e+00
    outer loop
      vertex -5.800076e+01  5.850000e+02  2.909351e+02
      vertex -4.000022e+01  5.850000e+02 -2.300011e+01
      vertex -4.191294e+01  5.850000e+02 -2.338204e+01
    endloop
  endfacet
  facet normal  0.000000e+00  1.000000e+00  0.000000e+00
    outer loop
      vertex -5.800076e+01  5.850000e+02  2.909351e+02
      vertex -4.191294e+01  5.850000e+02 -2.338204e+01
      vertex -4.353534e+01  5.850000e+02 -2.446468e+01
    endloop
  endfacet
  facet normal  0.000000e+00  1.000000e+00  0.000000e+00
    outer loop
      vertex -5.800076e+01  5.850000e+02  2.909351e+02
      vertex -4.353534e+01  5.850000e+02 -2.446468e+01
      vertex -4.461797e+01  5.850000e+02 -2.608707e+01
    endloop
  endfacet
  facet normal  0.000000e+00  1.000000e+00  0.000000e+00
    outer loop
      vertex -5.800076e+01  5.850000e+02  2.909351e+02
      vertex -4.461797e+01  5.850000e+02 -2.608707e+01
      vertex -4.499989e+01  5.850000e+02 -2.799978e+01
    endloop
  endfacet
  facet normal  0.000000e+00  1.000000e+00  0.000000e+00
    outer loop
      vertex -5.800076e+01  5.850000e+02  2.909351e+02
      vertex -4.499989e+01  5.850000e+02 -2.799978e+01
      vertex -4.500000e+01  5.850000e+02 -1.982185e+02
    endloop
  endfacet
  facet normal  0.000000e+00  1.000000e+00  0.000000e+00
    outer loop
      vertex -5.800076e+01  5.850000e+02  2.909351e+02
      vertex -4.500000e+01  5.850000e+02 -1.982185e+02
      vertex -2.975518e+02  5.850000e+02 -1.982185e+02
    endloop
  endfacet
  facet normal  -0.000000e+00  1.000000e+00  0.000000e+00
    outer loop
      vertex -2.975518e+02  5.850000e+02 -1.982185e+02
      vertex -3.005906e+02  5.850000e+02 -1.455881e+02
      vertex -2.980230e+02  5.850000e+02  4.599985e+00
    endloop
  endfacet
  facet normal  -0.000000e+00  1.000000e+00  0.000000e+00
    outer loop
      vertex -2.975518e+02  5.850000e+02 -1.982185e+02
      vertex -2.980230e+02  5.850000e+02  4.599985e+00
      vertex -2.940442e+02  5.850000e+02  3.725349e+01
    endloop
  endfacet
  facet normal  -0.000000e+00  1.000000e+00  0.000000e+00
    outer loop
      vertex -2.975518e+02  5.850000e+02 -1.982185e+02
      vertex -2.940442e+02  5.850000e+02  3.725349e+01
      vertex -2.689810e+02  5.850000e+02  1.294000e+02
    endloop
  endfacet
  facet normal  -0.000000e+00  1.000000e+00  0.000000e+00
    outer loop
      vertex -2.975518e+02  5.850000e+02 -1.982185e+02
      vertex -2.689810e+02  5.850000e+02  1.294000e+02
      vertex -2.343709e+02  5.850000e+02  1.881148e+02
    endloop
  endfacet
  facet normal  -0.000000e+00  9.999999e-01  0.000000e+00
    outer loop
      vertex -2.975518e+02  5.850000e+02 -1.982185e+02
      vertex -2.343709e+02  5.850000e+02  1.881148e+02
      vertex -1.862582e+02  5.850000e+02  2.356089e+02
    endloop
  endfacet
  facet normal  -0.000000e+00  1.000000e+00  0.000000e+00
    outer loop
      vertex -2.975518e+02  5.850000e+02 -1.982185e+02
      vertex -1.862582e+02  5.850000e+02  2.356089e+02
      vertex -1.264079e+02  5.850000e+02  2.704371e+02
    endloop
  endfacet
  facet normal  -0.000000e+00  9.999999e-01  0.000000e+00
    outer loop
      vertex -2.975518e+02  5.850000e+02 -1.982185e+02
      vertex -1.264079e+02  5.850000e+02  2.704371e+02
      vertex -5.800076e+01  5.850000e+02  2.909351e+02
    endloop
  endfacet
  facet normal  0.000000e+00  1.000000e+00  0.000000e+00
    outer loop
      vertex  8.848493e+01  5.850000e+02  2.839110e+02
      vertex  1.553920e+02  5.850000e+02  2.559946e+02
      vertex  4.500000e+01  5.850000e+02 -1.982185e+02
    endloop
  endfacet
  facet normal  0.000000e+00  1.000000e+00  0.000000e+00
    outer loop
      vertex  4.500000e+01  5.850000e+02 -1.982185e+02
      vertex  1.553920e+02  5.850000e+02  2.559946e+02
      vertex  2.115074e+02  5.850000e+02  2.137511e+02
    endloop
  endfacet
  facet normal  0.000000e+00  1.000000e+00  0.000000e+00
    outer loop
      vertex  4.500000e+01  5.850000e+02 -1.982185e+02
      vertex  2.115074e+02  5.850000e+02  2.137511e+02
      vertex  2.115074e+02  5.850000e+02 -1.982185e+02
    endloop
  endfacet
  facet normal -7.071099e-01  7.071037e-01  7.020653e-09
    outer loop
      vertex  3.717170e+02  7.037883e+02 -4.016481e+01
      vertex  3.680089e+02  7.000801e+02 -1.982185e+02
      vertex  3.682461e+02  7.003173e+02  9.400028e+00
    endloop
  endfacet
  facet normal -7.071072e-01  7.071064e-01  0.000000e+00
    outer loop
      vertex  2.822181e+02  6.142893e+02  2.137512e+02
      vertex  3.330987e+02  6.651699e+02  1.435567e+02
      vertex  2.822181e+02  6.142893e+02 -1.982185e+02
    endloop
  endfacet
  facet normal -7.071069e-01  7.071066e-01 -8.242746e-08
    outer loop
      vertex  2.822181e+02  6.142893e+02 -1.982185e+02
      vertex  3.330987e+02  6.651699e+02  1.435567e+02
      vertex  3.680089e+02  7.000801e+02 -1.982185e+02
    endloop
  endfacet
  facet normal -7.071064e-01  7.071072e-01  1.916194e-08
    outer loop
      vertex  3.330987e+02  6.651699e+02  1.435567e+02
      vertex  3.620932e+02  6.941644e+02  5.324781e+01
      vertex  3.680089e+02  7.000801e+02 -1.982185e+02
    endloop
  endfacet
  facet normal -7.071068e-01  7.071068e-01  0.000000e+00
    outer loop
      vertex  3.680089e+02  7.000801e+02 -1.982185e+02
      vertex  3.620932e+02  6.941644e+02  5.324781e+01
      vertex  3.682461e+02  7.003173e+02  9.400028e+00
    endloop
  endfacet
  facet normal -9.999431e-01 -9.997621e-10 -1.066597e-02
    outer loop
      vertex  2.070183e+03  6.850000e+02 -1.958188e+02
      vertex  2.068630e+03  6.850006e+02 -5.022584e+01
      vertex  2.070183e+03  8.946469e+02 -1.958188e+02
    endloop
  endfacet
  facet normal -9.999422e-01 -5.935008e-05 -1.075142e-02
    outer loop
      vertex  2.070183e+03  8.946469e+02 -1.958188e+02
      vertex  2.068630e+03  6.850006e+02 -5.022584e+01
      vertex  2.068619e+03  9.186310e+02 -5.051645e+01
    endloop
  endfacet
  facet normal -9.952401e-01  7.546187e-05  9.745369e-02
    outer loop
      vertex  2.068630e+03  6.850006e+02 -5.022584e+01
      vertex  2.079924e+03  6.850000e+02  6.511541e+01
      vertex  2.068619e+03  9.186310e+02 -5.051645e+01
    endloop
  endfacet
  facet normal -9.952549e-01  0.000000e+00  9.730266e-02
    outer loop
      vertex  2.068619e+03  9.186310e+02 -5.051645e+01
      vertex  2.079924e+03  6.850000e+02  6.511541e+01
      vertex  2.079924e+03  9.308845e+02  6.511541e+01
    endloop
  endfacet
  facet normal -9.348680e-01  4.168350e-03  3.549712e-01
    outer loop
      vertex  2.114369e+03  9.400844e+02  1.775834e+02
      vertex  2.093479e+03  9.358846e+02  1.226174e+02
      vertex  2.103352e+03  6.850001e+02  1.515643e+02
    endloop
  endfacet
  facet normal -9.730271e-01 -1.170694e-02  2.303935e-01
    outer loop
      vertex  2.103352e+03  6.850001e+02  1.515643e+02
      vertex  2.093479e+03  9.358846e+02  1.226174e+02
      vertex  2.079924e+03  9.308845e+02  6.511540e+01
    endloop
  endfacet
  facet normal -9.651855e-01  0.000000e+00  2.615662e-01
    outer loop
      vertex  2.103352e+03  6.850001e+02  1.515643e+02
      vertex  2.079924e+03  9.308845e+02  6.511540e+01
      vertex  2.079924e+03  6.850000e+02  6.511540e+01
    endloop
  endfacet
  facet normal -6.670992e-01  4.627171e-03  7.449544e-01
    outer loop
      vertex  2.224346e+03  9.479256e+02  3.141449e+02
      vertex  2.180095e+03  9.460445e+02  2.745302e+02
      vertex  2.201695e+03  6.850023e+02  2.954937e+02
    endloop
  endfacet
  facet normal -7.792700e-01 -1.416458e-02  6.265282e-01
    outer loop
      vertex  2.201695e+03  6.850023e+02  2.954937e+02
      vertex  2.180095e+03  9.460445e+02  2.745302e+02
      vertex  2.143249e+03  9.434590e+02  2.286422e+02
    endloop
  endfacet
  facet normal -7.520879e-01  3.975024e-04  6.590627e-01
    outer loop
      vertex  2.201695e+03  6.850023e+02  2.954937e+02
      vertex  2.143249e+03  9.434590e+02  2.286422e+02
      vertex  2.143715e+03  6.850020e+02  2.293308e+02
    endloop
  endfacet
  facet normal -8.704056e-01 -2.603766e-04  4.923354e-01
    outer loop
      vertex  2.143715e+03  6.850020e+02  2.293308e+02
      vertex  2.143249e+03  9.434590e+02  2.286422e+02
      vertex  2.114369e+03  9.400844e+02  1.775834e+02
    endloop
  endfacet
  facet normal -8.875338e-01 -8.656546e-03  4.606613e-01
    outer loop
      vertex  2.143715e+03  6.850020e+02  2.293308e+02
      vertex  2.114369e+03  9.400844e+02  1.775834e+02
      vertex  2.103352e+03  6.850001e+02  1.515643e+02
    endloop
  endfacet
  facet normal -2.608170e-01  4.286736e-03  9.653788e-01
    outer loop
      vertex  2.390388e+03  9.504968e+02  3.871643e+02
      vertex  2.330869e+03  9.500370e+02  3.710861e+02
      vertex  2.360135e+03  6.850002e+02  3.801700e+02
    endloop
  endfacet
  facet normal -4.017999e-01 -1.298617e-02  9.156354e-01
    outer loop
      vertex  2.360135e+03  6.850002e+02  3.801700e+02
      vertex  2.330869e+03  9.500370e+02  3.710861e+02
      vertex  2.275028e+03  9.492160e+02  3.465704e+02
    endloop
  endfacet
  facet normal -3.671013e-01  4.039756e-05  9.301810e-01
    outer loop
      vertex  2.360135e+03  6.850002e+02  3.801700e+02
      vertex  2.275028e+03  9.492160e+02  3.465704e+02
      vertex  2.275111e+03  6.849998e+02  3.466144e+02
    endloop
  endfacet
  facet normal -5.389235e-01 -2.771444e-05  8.423547e-01
    outer loop
      vertex  2.275111e+03  6.849998e+02  3.466144e+02
      vertex  2.275028e+03  9.492160e+02  3.465704e+02
      vertex  2.224346e+03  9.479256e+02  3.141449e+02
    endloop
  endfacet
  facet normal -5.714083e-01 -8.984195e-03  8.206167e-01
    outer loop
      vertex  2.275111e+03  6.849998e+02  3.466144e+02
      vertex  2.224346e+03  9.479256e+02  3.141449e+02
      vertex  2.201695e+03  6.850023e+02  2.954937e+02
    endloop
  endfacet
  facet normal  1.710359e-01  4.267450e-03  9.852555e-01
    outer loop
      vertex  2.574620e+03  9.502802e+02  3.823043e+02
      vertex  2.513946e+03  9.506046e+02  3.928356e+02
      vertex  2.544682e+03  6.850001e+02  3.886504e+02
    endloop
  endfacet
  facet normal  2.627661e-02 -1.271003e-02  9.995739e-01
    outer loop
      vertex  2.544682e+03  6.850001e+02  3.886504e+02
      vertex  2.513946e+03  9.506046e+02  3.928356e+02
      vertex  2.451973e+03  9.506737e+02  3.944656e+02
    endloop
  endfacet
  facet normal  6.262640e-02  8.158430e-06  9.980372e-01
    outer loop
      vertex  2.544682e+03  6.850001e+02  3.886504e+02
      vertex  2.451973e+03  9.506737e+02  3.944656e+02
      vertex  2.451993e+03  6.849999e+02  3.944666e+02
    endloop
  endfacet
  facet normal -1.177316e-01 -5.449431e-06  9.930454e-01
    outer loop
      vertex  2.451993e+03  6.849999e+02  3.944666e+02
      vertex  2.451973e+03  9.506737e+02  3.944656e+02
      vertex  2.390388e+03  9.504968e+02  3.871643e+02
    endloop
  endfacet
  facet normal -1.537812e-01 -8.507264e-03  9.880683e-01
    outer loop
      vertex  2.451993e+03  6.849999e+02  3.944666e+02
      vertex  2.390388e+03  9.504968e+02  3.871643e+02
      vertex  2.360135e+03  6.850002e+02  3.801700e+02
    endloop
  endfacet
  facet normal  3.155345e-01 -1.291116e-02  9.488263e-01
    outer loop
      vertex  2.574620e+03  9.502802e+02  3.823043e+02
      vertex  2.544682e+03  6.850001e+02  3.886504e+02
      vertex  2.632372e+03  9.496474e+02  3.630902e+02
    endloop
  endfacet
  facet normal  2.798392e-01  0.000000e+00  9.600469e-01
    outer loop
      vertex  2.632372e+03  9.496474e+02  3.630902e+02
      vertex  2.544682e+03  6.850001e+02  3.886504e+02
      vertex  2.632372e+03  6.850000e+02  3.630902e+02
    endloop
  endfacet
  facet normal  -0.000000e+00  1.000000e+00  0.000000e+00
    outer loop
      vertex  2.520000e+03  5.850000e+02 -1.964216e+02
      vertex  2.520000e+03  5.850000e+02 -2.799980e+01
      vertex  2.582550e+03  5.850000e+02  2.752956e+02
    endloop
  endfacet
  facet normal  0.000000e+00  1.000000e+00  0.000000e+00
    outer loop
      vertex  2.520000e+03  5.850000e+02 -1.964216e+02
      vertex  2.582550e+03  5.850000e+02  2.752956e+02
      vertex  2.595021e+03  5.850000e+02  2.703125e+02
    endloop
  endfacet
  facet normal  0.000000e+00  1.000000e+00  0.000000e+00
    outer loop
      vertex  2.520000e+03  5.850000e+02 -1.964216e+02
      vertex  2.595021e+03  5.850000e+02  2.703125e+02
      vertex  2.675009e+03  5.850000e+02  2.184106e+02
    endloop
  endfacet
  facet normal  0.000000e+00  1.000000e+00  0.000000e+00
    outer loop
      vertex  2.520000e+03  5.850000e+02 -1.964216e+02
      vertex  2.675009e+03  5.850000e+02  2.184106e+02
      vertex  2.710158e+03  5.850000e+02  1.776952e+02
    endloop
  endfacet
  facet normal  0.000000e+00  1.000000e+00  0.000000e+00
    outer loop
      vertex  2.520000e+03  5.850000e+02 -1.964216e+02
      vertex  2.710158e+03  5.850000e+02  1.776952e+02
      vertex  2.737225e+03  5.850000e+02  1.294000e+02
    endloop
  endfacet
  facet normal  0.000000e+00  1.000000e+00  0.000000e+00
    outer loop
      vertex  2.520000e+03  5.850000e+02 -1.964216e+02
      vertex  2.737225e+03  5.850000e+02  1.294000e+02
      vertex  2.756694e+03  5.850000e+02  7.216624e+01
    endloop
  endfacet
  facet normal  0.000000e+00  1.000000e+00  0.000000e+00
    outer loop
      vertex  2.520000e+03  5.850000e+02 -1.964216e+02
      vertex  2.756694e+03  5.850000e+02  7.216624e+01
      vertex  2.768701e+03  5.850000e+02  4.600064e+00
    endloop
  endfacet
  facet normal  0.000000e+00  1.000000e+00  0.000000e+00
    outer loop
      vertex  2.520000e+03  5.850000e+02 -1.964216e+02
      vertex  2.768701e+03  5.850000e+02  4.600064e+00
      vertex  2.771111e+03  5.850000e+02 -1.992304e+01
    endloop
  endfacet
  facet normal  0.000000e+00  1.000000e+00  0.000000e+00
    outer loop
      vertex  2.520000e+03  5.850000e+02 -1.964216e+02
      vertex  2.771111e+03  5.850000e+02 -1.992304e+01
      vertex  2.771431e+03  5.850000e+02 -1.964216e+02
    endloop
  endfacet
  facet normal  0.000000e+00  1.000000e+00  0.000000e+00
    outer loop
      vertex  2.475323e+03  5.850000e+02  2.948992e+02
      vertex  2.582550e+03  5.850000e+02  2.752956e+02
      vertex  2.520000e+03  5.850000e+02 -2.799980e+01
    endloop
  endfacet
  facet normal  0.000000e+00  1.000000e+00  0.000000e+00
    outer loop
      vertex  2.475323e+03  5.850000e+02  2.948992e+02
      vertex  2.520000e+03  5.850000e+02 -2.799980e+01
      vertex  2.519618e+03  5.850000e+02 -2.608727e+01
    endloop
  endfacet
  facet normal  0.000000e+00  1.000000e+00  0.000000e+00
    outer loop
      vertex  2.475323e+03  5.850000e+02  2.948992e+02
      vertex  2.519618e+03  5.850000e+02 -2.608727e+01
      vertex  2.518535e+03  5.850000e+02 -2.446511e+01
    endloop
  endfacet
  facet normal  0.000000e+00  1.000000e+00  0.000000e+00
    outer loop
      vertex  2.475323e+03  5.850000e+02  2.948992e+02
      vertex  2.518535e+03  5.850000e+02 -2.446511e+01
      vertex  2.516913e+03  5.850000e+02 -2.338243e+01
    endloop
  endfacet
  facet normal  0.000000e+00  1.000000e+00  0.000000e+00
    outer loop
      vertex  2.475323e+03  5.850000e+02  2.948992e+02
      vertex  2.516913e+03  5.850000e+02 -2.338243e+01
      vertex  2.515000e+03  5.850000e+02 -2.300021e+01
    endloop
  endfacet
  facet normal  0.000000e+00  9.999999e-01  0.000000e+00
    outer loop
      vertex  2.475323e+03  5.850000e+02  2.948992e+02
      vertex  2.515000e+03  5.850000e+02 -2.300021e+01
      vertex  2.435000e+03  5.850000e+02 -2.300021e+01
    endloop
  endfacet
  facet normal  0.000000e+00  1.000000e+00  -0.000000e+00
    outer loop
      vertex  2.475323e+03  5.850000e+02  2.948992e+02
      vertex  2.435000e+03  5.850000e+02 -2.300021e+01
      vertex  2.367764e+03  5.850000e+02  2.780344e+02
    endloop
  endfacet
  facet normal  -0.000000e+00  1.000000e+00  0.000000e+00
    outer loop
      vertex  2.170338e+03  5.850000e+02 -1.964216e+02
      vertex  2.167751e+03  5.850000e+02 -1.132847e+02
      vertex  2.175699e+03  5.850000e+02  3.079545e+01
    endloop
  endfacet
  facet normal  -0.000000e+00  1.000000e+00  0.000000e+00
    outer loop
      vertex  2.170338e+03  5.850000e+02 -1.964216e+02
      vertex  2.175699e+03  5.850000e+02  3.079545e+01
      vertex  2.202318e+03  5.850000e+02  1.294002e+02
    endloop
  endfacet
  facet normal  -0.000000e+00  1.000000e+00  0.000000e+00
    outer loop
      vertex  2.170338e+03  5.850000e+02 -1.964216e+02
      vertex  2.202318e+03  5.850000e+02  1.294002e+02
      vertex  2.230545e+03  5.850000e+02  1.790167e+02
    endloop
  endfacet
  facet normal  -0.000000e+00  9.999999e-01  0.000000e+00
    outer loop
      vertex  2.170338e+03  5.850000e+02 -1.964216e+02
      vertex  2.230545e+03  5.850000e+02  1.790167e+02
      vertex  2.268058e+03  5.850000e+02  2.206909e+02
    endloop
  endfacet
  facet normal  -0.000000e+00  1.000000e+00  0.000000e+00
    outer loop
      vertex  2.170338e+03  5.850000e+02 -1.964216e+02
      vertex  2.268058e+03  5.850000e+02  2.206909e+02
      vertex  2.314274e+03  5.850000e+02  2.540031e+02
    endloop
  endfacet
  facet normal  -0.000000e+00  1.000000e+00  0.000000e+00
    outer loop
      vertex  2.170338e+03  5.850000e+02 -1.964216e+02
      vertex  2.314274e+03  5.850000e+02  2.540031e+02
      vertex  2.367764e+03  5.850000e+02  2.780344e+02
    endloop
  endfacet
  facet normal  0.000000e+00  1.000000e+00  0.000000e+00
    outer loop
      vertex  2.170338e+03  5.850000e+02 -1.964216e+02
      vertex  2.367764e+03  5.850000e+02  2.780344e+02
      vertex  2.430000e+03  5.850000e+02 -1.964216e+02
    endloop
  endfacet
  facet normal  0.000000e+00  1.000000e+00  0.000000e+00
    outer loop
      vertex  2.367764e+03  5.850000e+02  2.780344e+02
      vertex  2.435000e+03  5.850000e+02 -2.300021e+01
      vertex  2.433087e+03  5.850000e+02 -2.338243e+01
    endloop
  endfacet
  facet normal  0.000000e+00  1.000000e+00  0.000000e+00
    outer loop
      vertex  2.367764e+03  5.850000e+02  2.780344e+02
      vertex  2.433087e+03  5.850000e+02 -2.338243e+01
      vertex  2.431465e+03  5.850000e+02 -2.446512e+01
    endloop
  endfacet
  facet normal  0.000000e+00  1.000000e+00  0.000000e+00
    outer loop
      vertex  2.367764e+03  5.850000e+02  2.780344e+02
      vertex  2.431465e+03  5.850000e+02 -2.446512e+01
      vertex  2.430382e+03  5.850000e+02 -2.608727e+01
    endloop
  endfacet
  facet normal  0.000000e+00  1.000000e+00  0.000000e+00
    outer loop
      vertex  2.367764e+03  5.850000e+02  2.780344e+02
      vertex  2.430382e+03  5.850000e+02 -2.608727e+01
      vertex  2.430000e+03  5.850000e+02 -2.799980e+01
    endloop
  endfacet
  facet normal  0.000000e+00  1.000000e+00  0.000000e+00
    outer loop
      vertex  2.367764e+03  5.850000e+02  2.780344e+02
      vertex  2.430000e+03  5.850000e+02 -2.799980e+01
      vertex  2.430000e+03  5.850000e+02 -1.964216e+02
    endloop
  endfacet
  facet normal  9.999999e-01 -7.849559e-11 -4.135061e-04
    outer loop
      vertex  2.871680e+03  8.971412e+02 -1.964216e+02
      vertex  2.871751e+03  9.209835e+02 -2.461054e+01
      vertex  2.871680e+03  6.850000e+02 -1.964216e+02
    endloop
  endfacet
  facet normal  9.999999e-01  0.000000e+00 -4.135062e-04
    outer loop
      vertex  2.871680e+03  6.850000e+02 -1.964216e+02
      vertex  2.871751e+03  9.209835e+02 -2.461054e+01
      vertex  2.871751e+03  6.850000e+02 -2.461054e+01
    endloop
  endfacet
  facet normal  5.981103e-01  4.704540e-03  8.014000e-01
    outer loop
      vertex  2.735337e+03  9.470019e+02  2.987154e+02
      vertex  2.686848e+03  9.485903e+02  3.348951e+02
      vertex  2.714781e+03  6.850013e+02  3.155948e+02
    endloop
  endfacet
  facet normal  4.593424e-01 -1.635020e-02  8.881089e-01
    outer loop
      vertex  2.714781e+03  6.850013e+02  3.155948e+02
      vertex  2.686848e+03  9.485903e+02  3.348951e+02
      vertex  2.632372e+03  9.496474e+02  3.630904e+02
    endloop
  endfacet
  facet normal  4.993404e-01  0.000000e+00  8.664059e-01
    outer loop
      vertex  2.714781e+03  6.850013e+02  3.155948e+02
      vertex  2.632372e+03  9.496474e+02  3.630904e+02
      vertex  2.632372e+03  6.850000e+02  3.630904e+02
    endloop
  endfacet
  facet normal  9.134898e-01  7.606453e-03  4.067907e-01
    outer loop
      vertex  2.842929e+03  9.364043e+02  1.331507e+02
      vertex  2.810403e+03  9.417399e+02  2.060916e+02
      vertex  2.828669e+03  6.850003e+02  1.698739e+02
    endloop
  endfacet
  facet normal  8.253173e-01 -2.088380e-02  5.642830e-01
    outer loop
      vertex  2.828669e+03  6.850003e+02  1.698739e+02
      vertex  2.810403e+03  9.417399e+02  2.060916e+02
      vertex  2.776754e+03  9.447548e+02  2.554183e+02
    endloop
  endfacet
  facet normal  8.597602e-01  3.651309e-03  5.106852e-01
    outer loop
      vertex  2.828669e+03  6.850003e+02  1.698739e+02
      vertex  2.776754e+03  9.447548e+02  2.554183e+02
      vertex  2.781155e+03  6.850024e+02  2.498651e+02
    endloop
  endfacet
  facet normal  7.225583e-01 -2.535019e-03  6.913053e-01
    outer loop
      vertex  2.781155e+03  6.850024e+02  2.498651e+02
      vertex  2.776754e+03  9.447548e+02  2.554183e+02
      vertex  2.735337e+03  9.470019e+02  2.987154e+02
    endloop
  endfacet
  facet normal  7.036194e-01 -9.428640e-03  7.105145e-01
    outer loop
      vertex  2.781155e+03  6.850024e+02  2.498651e+02
      vertex  2.735337e+03  9.470019e+02  2.987154e+02
      vertex  2.714781e+03  6.850013e+02  3.155948e+02
    endloop
  endfacet
  facet normal  9.786733e-01 -3.850265e-03  2.053868e-01
    outer loop
      vertex  2.864640e+03  6.849991e+02  4.159515e+01
      vertex  2.857245e+03  9.319767e+02  8.146140e+01
      vertex  2.850895e+03  6.849990e+02  1.070922e+02
    endloop
  endfacet
  facet normal  9.637780e-01  2.894670e-03  2.666903e-01
    outer loop
      vertex  2.850895e+03  6.849990e+02  1.070922e+02
      vertex  2.857245e+03  9.319767e+02  8.146140e+01
      vertex  2.842929e+03  9.364043e+02  1.331507e+02
    endloop
  endfacet
  facet normal  9.426609e-01 -4.722006e-03  3.337186e-01
    outer loop
      vertex  2.850895e+03  6.849990e+02  1.070922e+02
      vertex  2.842929e+03  9.364043e+02  1.331507e+02
      vertex  2.828669e+03  6.850003e+02  1.698739e+02
    endloop
  endfacet
  facet normal  9.942808e-01  0.000000e+00  1.067979e-01
    outer loop
      vertex  2.871751e+03  6.850000e+02 -2.461077e+01
      vertex  2.871751e+03  9.209835e+02 -2.461077e+01
      vertex  2.864640e+03  6.849991e+02  4.159515e+01
    endloop
  endfacet
  facet normal  9.908568e-01  7.926952e-03  1.346850e-01
    outer loop
      vertex  2.864640e+03  6.849991e+02  4.159515e+01
      vertex  2.871751e+03  9.209835e+02 -2.461077e+01
      vertex  2.857245e+03  9.319767e+02  8.146140e+01
    endloop
  endfacet
endsolid CATIA STL
