<svg width="16" height="16" xmlns="http://www.w3.org/2000/svg" class="bi bi-grid-3x3-gap-fill">

 <g>
  <title>Layer 1</title>
  <path fill="#ffffff" id="svg_1" d="m1,2a1,1 0 0 1 1,-1l2,0a1,1 0 0 1 1,1l0,2a1,1 0 0 1 -1,1l-2,0a1,1 0 0 1 -1,-1l0,-2zm5,0a1,1 0 0 1 1,-1l2,0a1,1 0 0 1 1,1l0,2a1,1 0 0 1 -1,1l-2,0a1,1 0 0 1 -1,-1l0,-2zm5,0a1,1 0 0 1 1,-1l2,0a1,1 0 0 1 1,1l0,2a1,1 0 0 1 -1,1l-2,0a1,1 0 0 1 -1,-1l0,-2zm-10,5a1,1 0 0 1 1,-1l2,0a1,1 0 0 1 1,1l0,2a1,1 0 0 1 -1,1l-2,0a1,1 0 0 1 -1,-1l0,-2zm5,0a1,1 0 0 1 1,-1l2,0a1,1 0 0 1 1,1l0,2a1,1 0 0 1 -1,1l-2,0a1,1 0 0 1 -1,-1l0,-2zm5,0a1,1 0 0 1 1,-1l2,0a1,1 0 0 1 1,1l0,2a1,1 0 0 1 -1,1l-2,0a1,1 0 0 1 -1,-1l0,-2zm-10,5a1,1 0 0 1 1,-1l2,0a1,1 0 0 1 1,1l0,2a1,1 0 0 1 -1,1l-2,0a1,1 0 0 1 -1,-1l0,-2zm5,0a1,1 0 0 1 1,-1l2,0a1,1 0 0 1 1,1l0,2a1,1 0 0 1 -1,1l-2,0a1,1 0 0 1 -1,-1l0,-2zm5,0a1,1 0 0 1 1,-1l2,0a1,1 0 0 1 1,1l0,2a1,1 0 0 1 -1,1l-2,0a1,1 0 0 1 -1,-1l0,-2z"/>
 </g>
</svg>