<?xml version="1.0" encoding="utf-8"?>
<!-- Generator: Adobe Illustrator 23.0.5, SVG Export Plug-In . SVG Version: 6.00 Build 0)  -->
<svg version="1.1" id="publicdomainvectors.org" xmlns="http://www.w3.org/2000/svg" xmlns:xlink="http://www.w3.org/1999/xlink"
	 x="0px" y="0px" viewBox="0 0 256.15 254.96" style="enable-background:new 0 0 256.15 254.96;" xml:space="preserve">
<g>
	<path d="M249.42,210.78l1.92-9.34l-9.33,1.97l1.93-9.34l-9.33,1.98l1.93-9.34l-9.32,1.98l1.93-9.34l-9.33,1.98l1.93-9.33
		l-9.32,1.98l1.93-9.33l-9.32,1.98l1.93-9.33l-9.32,1.98l1.93-9.33l-9.32,1.98l1.94-9.33l-9.32,1.98l1.93-9.33l-9.32,1.98l1.93-9.33
		l-9.32,1.98l1.93-9.33l-9.32,1.98l1.93-9.33l-9.32,1.98l1.93-9.33l-10.3,1.18l-13.32,14.42l18.02-19.74L95.64,48.02l0.56-5.67
		l10.35-10.28v-6.95l3.3-3.44L89.81,0H75.74c-1.62,1.11-2.71,2.75-3.54,4.47c-0.85,1.72-1.48,3.54-2.01,5.39
		c-1.02,3.7-1.72,7.54-1.98,11.34l-0.04,0.5c3.38,2.85,6.53,5.93,9.61,9.08c3.24,3.37,6.4,6.81,9.27,10.54
		c-3.63-2.99-6.96-6.27-10.23-9.62c-3.01-3.14-5.96-6.35-8.67-9.78v0.02l-0.73-0.13c-1.63-0.29-3.37-0.22-5.08-0.1
		c-1.72,0.14-3.44,0.42-5.13,0.78c-1.69,0.38-3.38,0.84-4.99,1.49c-1.63,0.62-3.18,1.44-4.55,2.55L30.94,43.06
		c-1.35,1.58-2.51,3.28-3.43,5.11c-0.96,1.81-1.71,3.71-2.3,5.67c-0.6,1.95-1.06,3.95-1.41,5.96c-0.38,2.01-0.59,4.05-0.8,6.1
		l-0.05,0.46c3.57,2.98,6.91,6.19,10.17,9.48c3.42,3.5,6.77,7.07,9.83,10.93v0c-3.81-3.12-7.33-6.52-10.78-10
		c-3.22-3.29-6.36-6.66-9.27-10.25l-0.59-0.02c-3.56-0.14-7.11,0.34-10.55,1.35c-1.72,0.5-3.4,1.15-5.06,1.86
		c-1.67,0.68-3.31,1.48-4.97,2.22l0,0L0,86.93l22.33,21.99l2.86-2.4h6.39l12.29-12.21l6.38,0.09l55.78,55.08l4.19-4.58l-1.07,10.01
		l9.31-2l-1.91,9.34l9.31-2l-1.91,9.34l9.32-2l-1.91,9.33l9.32-2l-1.91,9.34l9.31-2l-1.91,9.33l9.31-2.01l-1.92,9.33l9.32-2
		l-1.91,9.33l9.32-2l-1.91,9.34l9.32-2l-1.91,9.34l9.32-2l-1.91,9.34l9.32-2l-1.91,9.34l9.32-2l-1.91,9.34l9.32-2l-1.9,9.35
		l9.33-1.99v6.66h10.49l30.89-33.73l-0.08-10.49L249.42,210.78z M31.03,105.19h-3.44l77.62-77.76v4.1L31.03,105.19z M111.75,151.58
		c2.75-3.92,5.69-7.67,8.7-11.35c3-3.7,6.12-7.29,9.25-10.86l4.79-5.29c1.64-1.73,3.23-3.49,4.9-5.19c3.3-3.43,6.68-6.79,10.25-9.97
		c-2.74,3.92-5.69,7.67-8.7,11.35c-1.49,1.86-3.05,3.65-4.57,5.48l-4.68,5.38c-3.18,3.54-6.38,7.05-9.7,10.47
		C118.69,145.02,115.32,148.39,111.75,151.58 M119.4,158.92c2.75-3.92,5.69-7.67,8.7-11.35c3-3.7,6.12-7.29,9.25-10.86l4.79-5.29
		c1.63-1.73,3.23-3.49,4.9-5.18c3.3-3.43,6.68-6.79,10.25-9.98c-2.74,3.92-5.69,7.67-8.7,11.35c-1.49,1.86-3.05,3.65-4.57,5.48
		l-4.69,5.38c-3.18,3.54-6.38,7.05-9.7,10.47C126.34,152.37,122.97,155.73,119.4,158.92 M127.04,166.26
		c2.75-3.92,5.69-7.67,8.7-11.35c3-3.7,6.12-7.29,9.25-10.86l4.79-5.29c1.64-1.73,3.23-3.49,4.9-5.18c3.3-3.43,6.68-6.79,10.25-9.98
		c-2.75,3.92-5.69,7.67-8.7,11.36c-1.49,1.86-3.05,3.65-4.57,5.48l-4.69,5.38c-3.18,3.54-6.38,7.06-9.7,10.47
		C133.99,159.71,130.61,163.07,127.04,166.26 M134.69,173.61c2.75-3.92,5.69-7.67,8.7-11.35c3-3.7,6.12-7.29,9.25-10.86l4.79-5.29
		c1.63-1.73,3.23-3.49,4.9-5.19c3.3-3.42,6.68-6.79,10.25-9.98c-2.74,3.92-5.69,7.67-8.7,11.35c-1.49,1.86-3.05,3.65-4.57,5.48
		l-4.69,5.38c-3.18,3.54-6.38,7.05-9.7,10.47C141.64,167.05,138.26,170.42,134.69,173.61 M142.34,180.95
		c2.74-3.92,5.69-7.67,8.7-11.35c3-3.7,6.12-7.29,9.25-10.86l4.79-5.29c1.64-1.73,3.23-3.49,4.9-5.19c3.3-3.42,6.68-6.79,10.25-9.97
		c-2.74,3.92-5.69,7.67-8.7,11.35c-1.49,1.86-3.05,3.65-4.57,5.48l-4.69,5.38c-3.18,3.54-6.38,7.05-9.69,10.47
		C149.28,174.4,145.91,177.76,142.34,180.95 M149.99,188.29c2.75-3.92,5.69-7.67,8.7-11.35c3-3.69,6.12-7.29,9.25-10.86l4.79-5.29
		c1.63-1.73,3.23-3.49,4.9-5.19c3.3-3.43,6.68-6.79,10.25-9.98c-2.74,3.92-5.69,7.67-8.7,11.35c-1.49,1.86-3.05,3.65-4.57,5.48
		l-4.68,5.38c-3.18,3.54-6.38,7.05-9.7,10.47C156.93,181.74,153.56,185.1,149.99,188.29 M157.64,195.64
		c2.75-3.92,5.69-7.67,8.7-11.35c3-3.7,6.12-7.29,9.26-10.86l4.79-5.29c1.63-1.73,3.23-3.49,4.9-5.18c3.3-3.43,6.68-6.79,10.25-9.98
		c-2.74,3.92-5.69,7.67-8.7,11.35c-1.49,1.86-3.05,3.65-4.57,5.48l-4.69,5.38c-3.18,3.54-6.38,7.06-9.7,10.47
		C164.58,189.08,161.21,192.45,157.64,195.64 M165.28,202.98c2.75-3.92,5.69-7.67,8.7-11.35c3-3.7,6.12-7.29,9.25-10.86l4.79-5.29
		c1.63-1.73,3.23-3.49,4.9-5.19c3.3-3.42,6.68-6.79,10.25-9.98c-2.74,3.92-5.69,7.67-8.7,11.35c-1.49,1.86-3.05,3.65-4.57,5.48
		l-4.68,5.38c-3.18,3.54-6.38,7.05-9.7,10.47C172.23,196.43,168.85,199.79,165.28,202.98 M172.93,210.32
		c2.75-3.92,5.69-7.67,8.7-11.35c3-3.7,6.12-7.29,9.25-10.86l4.79-5.29c1.63-1.73,3.23-3.49,4.9-5.18c3.3-3.43,6.68-6.79,10.25-9.97
		c-2.74,3.92-5.69,7.67-8.7,11.35c-1.49,1.86-3.05,3.65-4.57,5.48l-4.69,5.38c-3.18,3.54-6.38,7.05-9.7,10.47
		C179.87,203.77,176.5,207.13,172.93,210.32 M180.58,217.67c2.75-3.92,5.69-7.67,8.7-11.35c3-3.69,6.12-7.29,9.25-10.86l4.79-5.29
		c1.63-1.73,3.23-3.49,4.9-5.19c3.3-3.42,6.68-6.79,10.25-9.98c-2.74,3.92-5.69,7.67-8.7,11.35c-1.49,1.86-3.05,3.65-4.57,5.48
		l-4.68,5.38c-3.18,3.54-6.38,7.05-9.7,10.47C187.52,211.11,184.15,214.48,180.58,217.67 M188.23,225.01
		c2.75-3.92,5.69-7.67,8.7-11.35c3-3.7,6.12-7.29,9.25-10.86l4.79-5.29c1.63-1.73,3.23-3.49,4.9-5.18c3.3-3.43,6.68-6.79,10.25-9.98
		c-2.74,3.92-5.69,7.67-8.7,11.35c-1.49,1.86-3.05,3.65-4.57,5.48l-4.69,5.38c-3.18,3.54-6.38,7.05-9.7,10.47
		C195.17,218.46,191.79,221.82,188.23,225.01 M195.87,232.35c2.75-3.92,5.69-7.67,8.7-11.35c3-3.7,6.12-7.29,9.25-10.86l4.79-5.29
		c1.63-1.73,3.23-3.49,4.9-5.19c3.3-3.42,6.68-6.79,10.25-9.98c-2.74,3.92-5.69,7.67-8.7,11.35c-1.49,1.86-3.05,3.65-4.57,5.48
		l-4.68,5.38c-3.18,3.54-6.38,7.05-9.7,10.47C202.82,225.8,199.44,229.17,195.87,232.35 M203.52,239.7
		c2.75-3.92,5.69-7.67,8.7-11.35c3-3.7,6.12-7.29,9.25-10.86l4.79-5.29c1.63-1.73,3.23-3.49,4.9-5.19c3.3-3.43,6.68-6.79,10.25-9.97
		c-2.74,3.92-5.69,7.67-8.7,11.35c-1.49,1.86-3.05,3.65-4.57,5.48l-4.69,5.38c-3.18,3.54-6.38,7.05-9.69,10.47
		C210.46,233.14,207.09,236.51,203.52,239.7 M211.17,247.04c2.75-3.92,5.69-7.67,8.7-11.35c3-3.7,6.12-7.29,9.25-10.86l4.79-5.29
		c1.64-1.73,3.23-3.49,4.9-5.19c3.3-3.43,6.68-6.79,10.25-9.98c-2.74,3.92-5.69,7.67-8.7,11.35c-1.49,1.86-3.05,3.65-4.57,5.48
		l-4.68,5.38c-3.18,3.54-6.38,7.05-9.7,10.47C218.11,240.49,214.74,243.85,211.17,247.04 M248.47,220.94l-3.77,4.23
		c-2.52,2.82-5.11,5.56-7.7,8.3c-2.62,2.72-5.23,5.44-7.92,8.09l-4.04,3.97c-1.38,1.29-2.73,2.61-4.14,3.88
		c1.19-1.47,2.45-2.88,3.67-4.32l3.77-4.23c2.52-2.82,5.11-5.56,7.7-8.31c2.62-2.72,5.23-5.44,7.92-8.09l4.04-3.97
		c1.38-1.29,2.73-2.61,4.14-3.88C250.94,218.09,249.69,219.5,248.47,220.94 M74.52,0h1.22c-1.79,0.84-3.09,2.48-4.13,4.14
		c-1.03,1.7-1.8,3.53-2.44,5.4c-0.63,1.87-1.11,3.78-1.5,5.72c-0.32,1.71-0.59,3.43-0.72,5.18c-1.6-0.18-3.17-0.12-4.72,0.05
		c-1.78,0.21-3.54,0.55-5.26,1.03c-1.72,0.48-3.4,1.09-5,1.9c-1.55,0.81-3.07,1.76-4.24,3.06L74.52,0z M1.72,71.91l27.69-27.35
		c-0.92,1.01-1.76,2.11-2.5,3.27c-1.1,1.79-1.99,3.7-2.73,5.67c-1.36,3.76-2.07,7.73-2.45,11.68c-3.5-0.04-7.02,0.53-10.28,1.74
		C7.98,68.15,4.79,69.97,1.72,71.91 M30.93,43.06L30.93,43.06L30.93,43.06z"/>
</g>
</svg>
